<svg id="Layer_1" data-name="Layer 1" xmlns="http://www.w3.org/2000/svg" viewBox="0 0 16 16"><defs><style>.cls-1{fill:#6e4b27;}</style></defs><path class="cls-1" d="M15.888,10.1442h0c-.3707-4.4051-4.5085-7.2978-4.5085-7.2978C4.9248-1.8141,1.3146,1.6211,1.3146,1.6211S.877,3.4371,3.1307,5.0781L6.6752,7.6162s4.2666,2.5162,5.6013,5.3825A7.5874,7.5874,0,0,0,10.176,8.754a27.6353,27.6353,0,0,0-3.61-2.8663A9.42,9.42,0,0,1,2.9775,2.5838S6.2814.002,11.5763,5.3407A7.3148,7.3148,0,0,1,14.2191,10.96a3.4589,3.4589,0,0,1-.7,2.0747q-.06.0736-.1263.1448l-.0081.0087a3.46,3.46,0,0,1-3.0117,1.0357s-2.56.0875-6.1482-3.1508c0,0-3.3616-3.3794-3.574-5.9848l.0513-.82C-1.2672,6.6535,2.08,10.6794,2.08,10.6794c3.9165,4.6386,7.7237,4.8574,7.7237,4.8574a5.4758,5.4758,0,0,0,4.4418-1.0813h0l.0016-.0015q.1386-.1221.2624-.2485a4.922,4.922,0,0,0,1.3516-2.7686,5.43,5.43,0,0,0,.052-.5492A4.1587,4.1587,0,0,0,15.888,10.1442Z"/></svg>